# xmcd
#
# Track frame offsets:
#	150
#	16141
#	33613
#	51173
#	68283
#	79837
#	95017
#	107107
#	139892
#	156235
#
# Disc length: 2397 seconds
# Revision: 0
# Processed by: cddbd v1.5.2PL0 Copyright (c) Steve Scherf et al.
# Submitted via: dBpowerAMP V12.0
#
DISCID=7e095b0a
DTITLE=Illya Szwec - Introducing Illya Szwec
DYEAR=2013
DGENRE=Blues
TTITLE0=Ain't Nothing A Young Girl Can Do
TTITLE1=Sunshine Of Your Love
TTITLE2=Lois Maxwell
TTITLE3=Just To Hold Your Hand
TTITLE4=Big Nick
TTITLE5=Missing You
TTITLE6=When My Love Comes Down
TTITLE7=Fire Eater
TTITLE8=I've Got To Find A Way (To Hide My Hurt)
TTITLE9=Lafayette Railroad
EXTD=
EXTT0=
EXTT1=
EXTT2=
EXTT3=
EXTT4=
EXTT5=
EXTT6=
EXTT7=
EXTT8=
EXTT9=
PLAYORDER=
